<svg width="64" height="65" viewBox="0 0 64 65" fill="none" xmlns="http://www.w3.org/2000/svg">
<path d="M52.4053 24.556C52.1701 24.0299 51.5953 23.7904 51.1212 24.021C50.6472 24.2517 50.4535 24.8652 50.6886 25.3913L51.5469 24.9737L52.4053 24.556ZM34.4853 55.8149C34.1511 56.2426 34.2126 56.9002 34.6228 57.2838L41.3073 63.534C41.7175 63.9176 42.321 63.8818 42.6553 63.4541C42.9896 63.0264 42.928 62.3687 42.5178 61.9852L36.576 56.4294L41.418 50.2339C41.7523 49.8062 41.6907 49.1486 41.2805 48.765C40.8703 48.3815 40.2668 48.4173 39.9326 48.845L34.4853 55.8149ZM51.5469 24.9737L50.6886 25.3913C53.2733 31.1755 54.9181 35.8728 55.6117 39.6814C56.3041 43.4832 56.03 46.2923 54.9013 48.411C53.7718 50.5312 51.6914 52.1386 48.4118 53.2985C45.1274 54.46 40.7359 55.1382 35.1309 55.4707L35.2281 56.5093L35.3253 57.548C40.9882 57.2121 45.5699 56.5218 49.0821 55.2796C52.5992 54.0358 55.139 52.2042 56.5715 49.5153C58.0048 46.8248 58.2345 43.4544 57.491 39.3715C56.7486 35.2953 55.0178 30.4025 52.4053 24.556L51.5469 24.9737Z" fill="#1E7A3F"/>
<path d="M30.6949 56.76C31.2238 56.7512 31.6662 56.2783 31.683 55.7039C31.6998 55.1294 31.2847 54.671 30.7558 54.6799L30.7254 55.72L30.6949 56.76ZM15.331 23.8642C15.1921 23.3176 14.6656 23.0178 14.155 23.1946L5.83441 26.0758C5.32381 26.2526 5.02248 26.839 5.16136 27.3856C5.30024 27.9323 5.82675 28.232 6.33735 28.0552L13.7335 25.4942L15.7452 33.412C15.8841 33.9586 16.4106 34.2584 16.9212 34.0816C17.4318 33.9047 17.7331 33.3183 17.5943 32.7717L15.331 23.8642ZM30.7254 55.72L30.7558 54.6799C24.3809 54.787 19.4676 54.4072 15.8682 53.4271C12.2675 52.4467 10.1233 50.9056 9.06417 48.8139C8.00192 46.716 7.90697 43.8206 8.93999 39.7953C9.97142 35.7761 12.087 30.7903 15.2381 24.6578L14.4065 24.1843L13.575 23.7109C10.3997 29.8904 8.19141 35.0563 7.09572 39.3258C6.00161 43.5892 5.97629 47.1194 7.37473 49.8812C8.77631 52.6492 11.4839 54.4019 15.3204 55.4465C19.1582 56.4916 24.2675 56.8681 30.6949 56.76L30.7254 55.72Z" fill="#1E7A3F"/>
<path d="M14.9724 18.1417C14.6866 18.6143 14.8381 19.2291 15.3107 19.5149C15.7832 19.8007 16.398 19.6492 16.6838 19.1767L15.8281 18.6592L14.9724 18.1417ZM48.7432 19.6055C49.2658 19.784 49.8342 19.5051 50.0127 18.9825L52.9222 10.4657C53.1007 9.94306 52.8218 9.37465 52.2991 9.19612C51.7765 9.01758 51.2081 9.29652 51.0296 9.81915L48.4434 17.3896L40.8729 14.8034C40.3503 14.6249 39.7819 14.9038 39.6034 15.4265C39.4248 15.9491 39.7038 16.5175 40.2264 16.6961L48.7432 19.6055ZM15.8281 18.6592L16.6838 19.1767C20.2215 13.3266 23.3019 8.995 26.0964 6.13315C28.9054 3.25652 31.2868 2.0074 33.4284 2.00003C35.547 1.99275 37.7556 3.20291 40.2246 6.05028C42.6886 8.89175 45.282 13.2174 48.1687 19.0997L49.0664 18.6592L49.9642 18.2186C47.0563 12.2933 44.3722 7.78054 41.7356 4.74001C39.1042 1.70537 36.3893 -0.0101628 33.4215 4.44855e-05C30.4767 0.0101726 27.6088 1.72173 24.6655 4.73586C21.7078 7.76476 18.5329 12.254 14.9724 18.1417L15.8281 18.6592Z" fill="#1E7A3F"/>
</svg>
